<svg width="800" height="600" xmlns="http://www.w3.org/2000/svg">
  <rect width="100%" height="100%" fill="#87ceeb"/>
  <rect y="350" width="100%" height="250" fill="#7cb342"/>
  <circle cx="700" cy="80" r="50" fill="#fcd34d"/>
  <rect x="100" y="250" width="250" height="150" fill="#8b4513"/>
  <polygon points="100,250 225,150 350,250" fill="#d32f2f"/>
  <rect x="180" y="320" width="60" height="80" fill="#5d4037"/>
  <rect x="280" y="280" width="40" height="40" fill="#90caf9"/>
  <g transform="translate(500, 320)">
    <ellipse cx="0" cy="0" rx="60" ry="40" fill="white"/>
    <ellipse cx="-40" cy="-30" rx="25" ry="20" fill="white"/>
    <rect x="-50" y="20" width="10" height="30" fill="#333"/>
    <rect x="-20" y="20" width="10" height="30" fill="#333"/>
    <rect x="20" y="20" width="10" height="30" fill="#333"/>
    <rect x="40" y="20" width="10" height="30" fill="#333"/>
    <circle cx="-35" cy="-35" r="5" fill="#333"/>
  </g>
  <text x="400" y="500" font-family="Arial, sans-serif" font-size="32" fill="white" text-anchor="middle" font-weight="bold">Farm Chokchai</text>
  <text x="400" y="540" font-family="Arial, sans-serif" font-size="18" fill="#333" text-anchor="middle">Placeholder Image</text>
</svg>
