<svg width="800" height="600" xmlns="http://www.w3.org/2000/svg">
  <rect width="100%" height="100%" fill="#1a1a2e"/>
  <circle cx="100" cy="80" r="4" fill="#ffd700" opacity="0.8"/>
  <circle cx="250" cy="50" r="3" fill="#ffd700" opacity="0.6"/>
  <circle cx="400" cy="90" r="4" fill="#ffd700" opacity="0.7"/>
  <circle cx="550" cy="40" r="3" fill="#ffd700" opacity="0.5"/>
  <circle cx="700" cy="70" r="4" fill="#ffd700" opacity="0.8"/>
  <rect y="300" width="100%" height="300" fill="#2d2d44"/>
  <g>
    <rect x="50" y="200" width="150" height="200" fill="#d32f2f"/>
    <rect x="60" y="220" width="130" height="100" fill="#ffeb3b" opacity="0.3"/>
    <circle cx="125" cy="180" r="30" fill="#ff6b35" opacity="0.9"/>
  </g>
  <g>
    <rect x="230" y="180" width="150" height="220" fill="#1976d2"/>
    <rect x="240" y="200" width="130" height="100" fill="#ffeb3b" opacity="0.3"/>
    <circle cx="305" cy="160" r="30" fill="#ff6b35" opacity="0.9"/>
  </g>
  <g>
    <rect x="410" y="200" width="150" height="200" fill="#388e3c"/>
    <rect x="420" y="220" width="130" height="100" fill="#ffeb3b" opacity="0.3"/>
    <circle cx="485" cy="180" r="30" fill="#ff6b35" opacity="0.9"/>
  </g>
  <g>
    <rect x="590" y="190" width="150" height="210" fill="#7b1fa2"/>
    <rect x="600" y="210" width="130" height="100" fill="#ffeb3b" opacity="0.3"/>
    <circle cx="665" cy="170" r="30" fill="#ff6b35" opacity="0.9"/>
  </g>
  <text x="400" y="480" font-family="Arial, sans-serif" font-size="32" fill="white" text-anchor="middle" font-weight="bold">Pak Chong Night Market</text>
  <text x="400" y="520" font-family="Arial, sans-serif" font-size="18" fill="#ccc" text-anchor="middle">Placeholder Image</text>
</svg>
