<svg width="800" height="600" xmlns="http://www.w3.org/2000/svg">
  <rect width="100%" height="100%" fill="#4a1c4e"/>
  <rect y="350" width="100%" height="250" fill="#2d4a2d"/>
  <circle cx="700" cy="80" r="50" fill="#fcd34d" opacity="0.8"/>
  <g fill="#3d6b3d">
    <rect x="50" y="380" width="20" height="80" rx="5"/>
    <rect x="90" y="360" width="20" height="100" rx="5"/>
    <rect x="130" y="370" width="20" height="90" rx="5"/>
    <rect x="170" y="350" width="20" height="110" rx="5"/>
    <rect x="210" y="365" width="20" height="95" rx="5"/>
    <rect x="250" y="375" width="20" height="85" rx="5"/>
    <rect x="290" y="355" width="20" height="105" rx="5"/>
    <rect x="330" y="380" width="20" height="80" rx="5"/>
    <rect x="370" y="360" width="20" height="100" rx="5"/>
    <rect x="410" y="370" width="20" height="90" rx="5"/>
    <rect x="450" y="350" width="20" height="110" rx="5"/>
    <rect x="490" y="365" width="20" height="95" rx="5"/>
    <rect x="530" y="375" width="20" height="85" rx="5"/>
    <rect x="570" y="355" width="20" height="105" rx="5"/>
    <rect x="610" y="380" width="20" height="80" rx="5"/>
    <rect x="650" y="360" width="20" height="100" rx="5"/>
    <rect x="690" y="370" width="20" height="90" rx="5"/>
    <rect x="730" y="350" width="20" height="110" rx="5"/>
  </g>
  <text x="400" y="500" font-family="Arial, sans-serif" font-size="32" fill="white" text-anchor="middle" font-weight="bold">PB Valley Winery</text>
  <text x="400" y="540" font-family="Arial, sans-serif" font-size="18" fill="#ccc" text-anchor="middle">Placeholder Image</text>
</svg>
